<svg width="136" height="136" viewBox="0 0 136 136" fill="none" xmlns="http://www.w3.org/2000/svg">
<g clip-path="url(#clip0_9_52)">
<path d="M63.2961 54.4673C64.357 54.4673 65.3744 54.0459 66.1246 53.2957C66.8747 52.5456 67.2961 51.5282 67.2961 50.4673V38.7113C67.1194 37.8054 67.2613 36.8663 67.6979 36.0531C68.1345 35.24 68.8389 34.6028 69.6916 34.2497C70.5443 33.8965 71.493 33.8491 72.3766 34.1155C73.2603 34.3819 74.0247 34.9457 74.5401 35.7113L101.884 63.0553C102.332 63.5036 102.688 64.0359 102.931 64.6217C103.173 65.2074 103.298 65.8353 103.298 66.4693C103.298 67.1033 103.173 67.7312 102.931 68.317C102.688 68.9027 102.332 69.435 101.884 69.8833L74.5401 97.2233C74.0247 97.9889 73.2603 98.5527 72.3766 98.8191C71.493 99.0855 70.5443 99.0381 69.6916 98.6849C68.8389 98.3318 68.1345 97.6946 67.6979 96.8815C67.2613 96.0683 67.1194 95.1292 67.2961 94.2233V82.4673C67.2961 81.4064 66.8747 80.389 66.1246 79.6389C65.3744 78.8887 64.357 78.4673 63.2961 78.4673H39.2961C38.2353 78.4673 37.2179 78.0459 36.4677 77.2957C35.7176 76.5456 35.2961 75.5282 35.2961 74.4673V58.4673C35.2961 57.4064 35.7176 56.389 36.4677 55.6389C37.2179 54.8887 38.2353 54.4673 39.2961 54.4673H63.2961Z" fill="#48BF84" stroke="#48BF84" stroke-width="2" stroke-linecap="round" stroke-linejoin="round"/>
</g>
<defs>
<clipPath id="clip0_9_52">
<rect width="96" height="96" fill="white" transform="translate(0 67.8823) rotate(-45)"/>
</clipPath>
</defs>
</svg>
